<svg xmlns="http://www.w3.org/2000/svg" xmlns:xlink="http://www.w3.org/1999/xlink" width="500.0003662109375" height="499.9999084472656" viewBox="0 0 500.0003662109375 499.9999084472656" fill="none">
<rect x="0" y="0" width="0" height="0" fill="rgba(249, 249, 249, 1)" />
<g  clip-path="url(#clip-path-nviL40z6X9IYSmA6O7vAN)">
<path d="M155.956 459.613L170.51 434.406C172.85 430.35 171.461 425.169 167.407 422.828L147.116 411.113C142.056 408.191 135.587 409.925 132.666 414.984L119.164 438.369C113.298 448.531 116.779 461.522 126.939 467.388C137.099 473.253 150.09 469.772 155.956 459.613Z"   fill="#CCA18A" >
</path>
<path    stroke="rgba(0, 0, 0, 1.00)" stroke-width="0.2"    d="M137.955 405.822L119.164 438.368C113.298 448.531 116.779 461.521 126.939 467.387C137.099 473.253 150.09 469.771 155.956 459.612L174.747 427.065">
</path>
<path d="M386.572 439.534L370.713 412.063C368.372 408.009 363.188 406.619 359.135 408.959L338.844 420.675C333.785 423.597 332.05 430.066 334.972 435.125L349.782 460.775C355.647 470.937 368.638 474.415 378.797 468.55C388.957 462.684 392.438 449.694 386.572 439.534Z"   fill="#CCA18A" >
</path>
<path    stroke="rgba(0, 0, 0, 1.00)" stroke-width="0.2"    d="M329.682 425.966L349.782 460.775C355.647 470.937 368.638 474.415 378.797 468.55C388.957 462.684 392.438 449.694 386.572 439.534L366.476 404.722">
</path>
<path d="M109.968 73.3047L129.152 80.8678C136.079 83.5985 138.393 92.2481 133.756 98.0731L123.951 110.88C119.02 117.181 109.466 117.12 104.616 110.757L93.0848 95.6266C89.2226 90.5594 89.1129 83.5672 92.8142 78.381C96.6886 72.9519 103.762 70.8585 109.968 73.3047Z"   fill="#99D6FA" >
</path>
<path    stroke="rgba(0, 0, 0, 1.00)" stroke-width="0.2"    d="M113.227 120.717L92.6767 94.2975C88.757 89.2581 88.8292 82.1813 92.8514 77.2228C96.6432 72.5488 103.038 70.8903 108.623 73.1319L142.725 86.8184">
</path>
<path d="M389.273 73.2947L370.148 81.0016C363.241 83.7843 360.991 92.4512 365.673 98.2409L375.573 110.975C380.551 117.238 390.104 117.104 394.907 110.706L406.323 95.4887C410.147 90.3928 410.204 83.3997 406.463 78.2416C402.551 72.8419 395.46 70.8019 389.273 73.2947Z"   fill="#99D6FA" >
</path>
<path    stroke="rgba(0, 0, 0, 1.00)" stroke-width="0.2"    d="M386.379 120.73L406.729 94.1574C410.613 89.0887 410.488 82.0125 406.429 77.0847C402.601 72.4394 396.194 70.8288 390.626 73.1125L356.626 87.0549">
</path>
<path d="M98.1307 180.857C100.465 105.299 166.029 47.2228 232.028 47.2228L268.709 47.2228C334.071 47.2228 399.649 105.976 401.721 180.847C403.105 230.893 403.105 280.042 401.721 330.09C400.68 367.631 387.011 397.256 365.593 417.5C344.155 437.759 314.759 448.809 281.942 448.809L223.247 448.809C157.089 448.809 100.461 403.734 98.1307 328.33C96.6191 279.416 96.6191 229.77 98.1307 180.857Z" stroke="rgba(0, 0, 0, 1.00)" stroke-width="0.2"      fill="#99D6FA" >
</path>
<path d="M232.028 44.0978C164.367 44.0978 97.3951 103.489 95.0073 180.761C93.4939 229.738 93.4939 279.449 95.0073 328.427C97.3292 403.572 152.427 449.365 217.686 451.828C208.367 431.228 203.178 408.362 203.178 384.281C203.178 293.686 276.619 220.245 367.215 220.245C380.471 220.245 393.361 221.818 405.705 224.786C405.54 210.158 405.252 195.498 404.843 180.761C402.724 104.186 335.752 44.0978 268.709 44.0978L232.028 44.0978Z" fill-rule="evenodd"  fill="#99D6FA" >
</path>
<path d="M232.028 50.3478L268.709 50.3478C332.393 50.3478 396.571 107.766 398.596 180.934C398.99 195.151 399.271 209.296 399.44 223.409C401.543 223.829 403.633 224.288 405.705 224.786C405.54 210.158 405.252 195.498 404.843 180.761C402.724 104.186 335.752 44.0978 268.709 44.0978L232.028 44.0978C164.367 44.0978 97.3951 103.489 95.0073 180.761C93.4939 229.738 93.4939 279.449 95.0073 328.427C97.3292 403.572 152.427 449.365 217.686 451.828C216.734 449.722 215.824 447.593 214.959 445.44C153.952 441.85 103.429 398.609 101.254 328.233C99.7448 279.384 99.7448 229.802 101.254 180.954C103.536 107.108 167.692 50.3478 232.028 50.3478Z" fill-rule="evenodd"  fill="#000000" >
</path>
<path d="M232.028 44.0978C164.367 44.0978 97.3951 103.489 95.0073 180.761C93.4939 229.738 93.4939 279.449 95.0073 328.428C97.3951 405.697 155.586 451.935 223.247 451.935L281.942 451.935C283.063 451.935 284.18 451.922 285.294 451.897C282.647 440.2 281.25 428.028 281.25 415.532C281.25 338.518 334.318 273.903 405.884 256.258C405.89 231.167 405.543 206.078 404.843 180.761C402.724 104.186 335.753 44.0978 268.709 44.0978L232.028 44.0978Z" fill-rule="evenodd"  fill="#99D6FA" >
</path>
<path d="M232.028 50.3478L268.709 50.3478C332.393 50.3478 396.571 107.766 398.596 180.934C399.312 206.757 399.655 232.34 399.63 257.932C401.699 257.334 403.784 256.776 405.884 256.258C405.89 231.167 405.543 206.078 404.843 180.761C402.724 104.186 335.753 44.0978 268.709 44.0978L232.028 44.0978C164.367 44.0978 97.3951 103.489 95.0073 180.761C93.4939 229.738 93.4939 279.449 95.0073 328.428C97.3951 405.697 155.586 451.935 223.247 451.935L281.942 451.935C283.063 451.935 284.18 451.922 285.294 451.897C284.828 449.835 284.4 447.76 284.012 445.669C283.324 445.678 282.634 445.685 281.942 445.685L223.247 445.685C158.593 445.685 103.527 401.772 101.254 328.234C99.7448 279.385 99.7448 229.802 101.254 180.954C103.536 107.108 167.692 50.3478 232.028 50.3478Z" fill-rule="evenodd"  fill="#000000" >
</path>
<path d="M232.028 44.0978C164.367 44.0978 97.3951 103.489 95.0073 180.761C93.4939 229.738 93.4939 279.449 95.0073 328.428C97.0951 396 141.857 439.838 198.308 449.778L179.846 431.303C166.438 417.888 167.976 395.719 183.108 384.281L335.696 268.966C345.818 261.315 359.565 260.546 370.478 267.02L405.687 287.902C406.118 252.209 405.837 216.716 404.843 180.761C402.724 104.186 335.753 44.0978 268.709 44.0978L232.028 44.0978Z" fill-rule="evenodd"  fill="#99D6FA" >
</path>
<path d="M232.028 50.3478L268.709 50.3478C332.393 50.3478 396.571 107.766 398.596 180.934C399.556 215.594 399.849 249.824 399.478 284.22L405.687 287.902C406.118 252.209 405.837 216.716 404.843 180.761C402.724 104.186 335.753 44.0978 268.709 44.0978L232.028 44.0978C164.367 44.0978 97.3951 103.489 95.0073 180.761C93.4939 229.738 93.4939 279.449 95.0073 328.428C97.0951 396 141.857 439.838 198.308 449.778L190.209 441.675C140.831 429.294 103.126 388.819 101.254 328.234C99.7448 279.385 99.7448 229.802 101.254 180.954C103.536 107.108 167.692 50.3478 232.028 50.3478Z" fill-rule="evenodd"  fill="#000000" >
</path>
<path d="M228.174 151.196C228.174 180.077 205.226 203.485 176.923 203.485C148.619 203.485 125.671 180.077 125.671 151.196C125.671 122.315 148.619 98.9076 176.923 98.9076C205.226 98.9076 228.174 122.315 228.174 151.196Z" fill-rule="evenodd"  fill="#FFFFFF" >
</path>
<path d="M185.316 151.167C185.316 164.516 174.702 175.351 161.606 175.351C148.524 175.351 137.909 164.516 137.909 151.167C137.909 137.818 148.524 126.984 161.606 126.984C174.702 126.984 185.316 137.818 185.316 151.167Z" fill-rule="evenodd"  fill="#000000" >
</path>
<path d="M374.063 151.196C374.063 180.077 351.116 203.485 322.813 203.485C294.496 203.485 271.561 180.077 271.561 151.196C271.561 122.315 294.496 98.9076 322.813 98.9076C351.116 98.9076 374.063 122.315 374.063 151.196Z" fill-rule="evenodd"  fill="#FFFFFF" >
</path>
<path d="M362.044 151.167C362.044 164.516 351.429 175.351 338.347 175.351C325.251 175.351 314.638 164.516 314.638 151.167C314.638 137.818 325.251 126.984 338.347 126.984C351.429 126.984 362.044 137.818 362.044 151.167Z" fill-rule="evenodd"  fill="#000000" >
</path>
<path d="M238.51 236.992L269.051 236.992L269.051 211.853L238.51 211.853L238.51 236.992Z" fill-rule="evenodd"  fill="#FFFFFF" >
</path>
<path d="M284.273 203.492C284.273 212.743 270.61 220.247 253.756 220.247C236.915 220.247 223.251 212.743 223.251 203.492C223.251 194.241 236.915 186.737 253.756 186.737C270.61 186.737 284.273 194.241 284.273 203.492Z" fill-rule="evenodd"  fill="#CCA18A" >
</path>
<path d="M269.053 194.827C269.053 204.242 262.111 203.487 253.53 203.487C244.961 203.487 238.007 204.242 238.007 194.827C238.007 185.413 244.961 177.795 253.53 177.795C262.111 177.795 269.053 185.413 269.053 194.827Z" fill-rule="evenodd"  fill="#000000" >
</path>
<path d="M428.46 302.577L406.957 281.074C404.157 278.273 399.613 278.273 396.813 281.074L382.794 295.093C379.3 298.588 379.3 304.256 382.794 307.751L403.041 327.997C410.06 335.015 421.441 335.015 428.46 327.997C435.478 320.978 435.478 309.597 428.46 302.577Z"   fill="#CCA18A" >
</path>
<path    stroke="rgba(0, 0, 0, 1.00)" stroke-width="0.2"    d="M376.466 301.422L403.041 327.997C410.06 335.015 421.441 335.015 428.46 327.997C435.478 320.978 435.478 309.597 428.46 302.577L401.885 276.003">
</path>
<path d="M96.7757 327.994L118.279 306.491C121.08 303.691 121.08 299.15 118.279 296.349L104.26 282.33C100.765 278.835 95.0972 278.835 91.6019 282.33L71.356 302.576C64.3367 309.595 64.3367 320.975 71.356 327.994C78.3754 335.016 89.7563 335.016 96.7757 327.994Z"   fill="#CCA18A" >
</path>
<path    stroke="rgba(0, 0, 0, 1.00)" stroke-width="0.2"    d="M97.9311 276.001L71.356 302.576C64.3367 309.595 64.3367 320.975 71.356 327.993C78.3754 335.015 89.7563 335.015 96.7756 327.993L123.35 301.42">
</path>
<path d="M458.625 243.695L487.857 252.149L460.665 260.11L479.315 267.874L459.724 271.531L458.625 243.702L458.625 243.695Z"   fill="#1A1A1A" >
</path>
<path d="M184.553 189.536C180.827 239.182 240.867 318.782 299.906 325.111C322.982 327.572 356.737 305.874 354.887 282.841C349.705 218.603 250.138 215.366 184.553 189.536Z"   fill="#2B2222" >
</path>
<path d="M60.8266 375.086C129.681 446.081 253.309 478.076 342.975 443.717C417.785 415.05 465.989 322.569 465.727 249.23C465.524 198.998 411.142 141.865 331.067 165.421C295.099 175.995 267.762 209.598 244.679 240.128C193.079 304.234 147.265 347.31 60.8266 375.086Z"   fill="#2B2222" >
</path>
<path d="M128.473 228.326C132.779 277.966 204.803 347.013 264.054 343.836C287.214 342.586 317.02 315.775 311.488 293.315C296.056 230.682 197.311 243.38 128.473 228.326Z"   fill="#2B2222" >
</path>
<path d="M292.158 189.24C312.705 191.076 349.002 197.549 377.628 199.313C401.12 200.767 428.881 200.142 448.235 199.74C462.352 223.675 463.594 249.195 459.73 271.531C418.475 278.413 387.711 273.34 353.989 262.617C323.311 252.866 292.856 238.162 270.731 213.668C280.503 199.754 283.827 196.747 292.158 189.24Z"   fill="#D40000" >
</path>
<path d="M292.158 189.24C312.706 191.076 349.002 197.549 377.628 199.313C401.121 200.767 428.882 200.142 448.236 199.74C462.352 223.675 463.594 249.195 459.73 271.531C418.475 278.413 387.711 273.34 353.989 262.617C323.311 252.866 292.857 238.162 270.731 213.668C280.504 199.754 283.827 196.747 292.158 189.24Z"   fill="#D40000" >
</path>
<path d="M444.897 247.722C440.875 258.334 426.713 262.36 413.256 256.722C399.798 251.077 392.153 237.906 396.169 227.3C400.186 216.688 414.354 212.655 427.804 218.3C441.262 223.932 448.914 237.11 444.897 247.722Z"   fill="#FFFFFF" >
</path>
<path d="M443.492 246.445C440.464 254.452 430.379 257.742 420.955 253.794C411.531 249.847 406.36 240.149 409.387 232.149C412.42 224.135 422.519 220.846 431.936 224.787C441.36 228.741 446.531 238.432 443.492 246.445Z"   fill="#1A1A1A" >
</path>
<path d="M439.667 236.169C438.593 238.997 435.157 240.215 431.98 238.879C428.81 237.55 427.113 234.175 428.187 231.353C429.261 228.517 432.69 227.3 435.86 228.629C439.037 229.958 440.748 233.333 439.667 236.169Z"   fill="#FFFFFF" >
</path>
<path d="M443.363 232.544C438.186 229.34 433.878 224.932 428.727 221.688C423.766 218.359 418.641 215.148 413.086 212.912C410.648 212.083 408.211 211.247 405.786 210.372C404.13 210.767 406.097 209.293 406.437 208.747L411.441 203.161C413.613 203.445 415.546 204.642 417.666 205.135C423.399 207.484 428.598 210.932 433.789 214.267C438.888 217.688 443.654 221.609 448.799 224.965C450.314 225.241 450.246 226.294 449.071 226.938L443.363 232.544Z"   fill="#1A1A1A" >
</path>
<path d="M296.526 216.675C286.623 216.326 275.102 217.556 267.479 208.431C266.616 207.481 265.777 206.509 264.962 205.516C264.146 204.524 263.356 203.512 262.591 202.481C261.825 201.45 261.086 200.4 260.372 199.332C259.659 198.265 258.972 197.181 258.312 196.079C257.652 194.977 257.02 193.86 256.415 192.728C255.811 191.595 255.234 190.448 254.686 189.288C254.138 188.127 253.619 186.953 253.129 185.767C252.639 184.581 252.179 183.383 251.748 182.174C251.107 174.99 251.065 166.207 244.465 162.798C236.841 157.983 227.863 158.673 219.542 157.351C203.847 156.305 188.919 162.825 174.324 168.588C167.387 171.305 158.845 170.805 153.732 163.878C149.747 159.351 147.308 153.483 144.786 147.864C141.106 144.233 140.866 138.574 145.808 137.074L154.921 130.903C159.646 140.989 163.258 153.957 173.151 158.45C183.293 161.016 192.66 154.147 202.202 151.371C215.734 146.239 230.198 145.47 244.196 148.18C252.252 149.029 262.016 152.502 264.492 162.851C265.246 171.819 266.899 180.556 272.308 187.293C277.444 196.398 284.947 205.089 294.757 205.458C298.006 206.734 308.62 204.142 307.462 207.247L296.52 216.675L296.526 216.675Z"   fill="#D40000" >
</path>
<path d="M289.869 211.938C282.679 207.273 273.873 203.161 270.785 194.575C268.742 188.825 266.64 183.016 265.602 177.003C264.688 168.832 265.562 160.595 265.121 152.41C266.415 147.18 262.994 142.371 257.734 141.404C250.844 139.41 243.556 139.667 236.486 138.699C229.991 138.344 222.26 139.752 217.082 134.883C213.156 130.252 211.447 124.246 209.484 118.627C209.031 115.686 212.945 115.574 214.635 113.837L223.927 107.949C224.614 113.423 227.049 118.521 229.221 123.541C232.209 128.805 238.717 129.061 244.085 128.923C252.508 129.456 261.055 129.621 269.306 131.483C274.502 132.693 280.642 136.351 280.12 142.384C280.519 154.864 278.499 167.805 282.85 179.838C284.649 185.22 286.429 191.029 291.213 194.609C294.818 197.924 299.334 200.096 303.338 202.74C300.08 205.589 295.911 207.734 292.303 210.326L289.875 211.938L289.869 211.938Z"   fill="#D40000" >
</path>
</g>
<defs>
<clipPath id="clip-path-nviL40z6X9IYSmA6O7vAN">
<path d="M-9.12094e-09 500L500 500L500 1.59233e-15L0 0L-9.12094e-09 500Z" fill="white"/>
</clipPath>
</defs>
</svg>
